<svg xmlns="http://www.w3.org/2000/svg" data-name="Layer 1" width="727.20961" height="478.35985" viewBox="0 0 727.20961 478.35985" xmlns:xlink="http://www.w3.org/1999/xlink"><path d="M604.9915,289.16817l5.61465-22.646L596.76534,263.109l-5.49466,22.03167c-3.61811-.90442-7.33788-1.70656-11.04182-2.5939l5.52966-22.1853-13.77165-3.41313L566.338,279.56032q-4.506-1.024-8.78946-2.065l-18.99383-4.74429-3.66894,14.71055s10.00021,2.28684,10.00021,2.49162c5.58049,1.39939,6.5871,5.11968,6.41711,8.00377l-6.43377,25.78612a10.03318,10.03318,0,0,1,1.43324.46081l-1.45074-.35842-9.01028,36.11091a4.99175,4.99175,0,0,1-6.28045,3.27656H529.527c.13666.20478-10.01688-2.49161-10.01688-2.49161l-6.82625,15.76871,17.9189,4.47119c3.41312.8362,6.60376,1.70656,9.81273,2.52568L534.715,406.39189,548.47,409.805l5.64882-22.646c3.65227.98973,7.32121,1.92842,10.97349,2.84993l-5.63215,22.54372,13.77165,3.41312,5.70048-22.85088c23.48189,4.437,41.16247,2.64514,48.58534-18.58449,5.99047-17.06561-.29-26.96365-12.66255-33.39742,8.99361-2.082,15.78569-7.98669,17.59475-20.22271l.15332-.06823C635.09465,304.13475,622.36376,295.15822,604.9915,289.16817Zm-3.85726,75.80554c-4.24891,17.06562-33.05547,7.85014-42.39073,5.54633l7.56037-30.32564c9.30026,2.338,39.25092,6.94572,34.79619,24.77931Zm4.2664-44.3706c-3.89059,15.56383-27.85078,7.64536-35.6328,5.71694l6.82624-27.49268c7.76536,1.92842,32.81715,5.54632,28.70407,21.77574Z" transform="translate(-236.3952 -210.82008)" fill="#00bfa6"/><path d="M575.58289,465.30274A127.24133,127.24133,0,1,1,702.82423,338.06141,127.38519,127.38519,0,0,1,575.58289,465.30274Zm0-251.06954A123.82821,123.82821,0,1,0,699.4111,338.06141,123.96842,123.96842,0,0,0,575.58289,214.2332ZM571.314,417.36653l-17.08561-4.23474,5.633-22.547c-2.55359-.64329-5.12135-1.30992-7.66911-1.99154l-5.64049,22.61277-17.06686-4.23474,5.70381-22.90025q-.9993-.26-2.004-.5233c-2.00279-.52414-4.0335-1.05577-6.15-1.57491l-19.87836-4.96053,8.2095-18.963,1.42033.37747c1.96529.52164,4.04058,1.06327,5.77089,1.50408l-.24-.36,4.53888,1.36158a3.312,3.312,0,0,0,4.196-2.15237l8.59572-34.46037-.00834-.0025,6.80625-27.27832c.13458-3.20147-1.54657-5.19635-5.13593-6.09546l-3.831-.96078.09458-.06083c-1.81114-.43914-4.08558-.97244-6.22878-1.46157l-1.697-.38748,4.50305-18.05639,20.65082,5.158q3.476.85245,7.12456,1.68406l5.65632-22.64194,17.08394,4.23391-5.52466,22.1678q1.458.34,2.91358.67246c1.61281.37081,3.21938.73912,4.8097,1.12243l5.49549-22.03364,17.15145,4.22974L603.8599,287.407c13.54709,4.8572,30.16815,13.58833,27.27,33.0213l-.13832.92744-.16416.0725c-1.6924,9.83939-6.68542,16.38982-14.87158,19.52629,11.95093,7.63953,15.22239,18.628,10.011,33.47544-8.23116,23.53939-29.15071,23.53522-48.92824,19.98877Zm-12.945-6.72459,10.45853,2.59151L574.505,390.474l1.58241.29914c27.015,5.10386,40.53375.04167,46.65837-17.47142,5.09594-14.51911,1.33367-24.47016-11.83968-31.32057l-4.1035-2.134,4.506-1.04243c9.41359-2.179,14.74243-8.33116,16.2915-18.80968l.13749-.92827.13916-.06167c1.52865-13.09919-6.72292-22.03447-26.60295-28.889l-1.47574-.5083,5.57882-22.50362-10.52852-2.59567-5.49674,22.037-1.65657-.41414c-2.10778-.52746-4.25015-1.0191-6.40377-1.51324-1.53782-.35331-3.08106-.70745-4.62138-1.0766l-1.67448-.40164L580.528,260.942l-10.46019-2.59234-5.64091,22.58028-1.62948-.37081c-3.01315-.68579-5.95755-1.36992-8.81654-2.07154l-17.34476-4.33307-2.83483,11.366a82.00156,82.00156,0,0,1,8.39365,2.1257c5.15218,1.31242,7.93909,4.86137,7.65,9.74607l-.04792.31248-6.04754,24.23851.02.00833-.40623,1.53907-.07958-.02-.03166.09833.09458.02416-9.0107,36.11111a6.72038,6.72038,0,0,1-8.45656,4.49889l.00458-.01583c-1.30492-.17582-3.72394-.80412-8.55322-2.08487l-5.443,12.57339,15.96652,3.98392c2.12736.52164,4.17557,1.05744,6.195,1.58657,1.21493.31748,2.41944.6333,3.62644.94161l1.64407.41914-5.69757,22.87443,10.44311,2.5915,5.65757-22.68193,1.68115.455c3.62311.98244,7.3033,1.93821,10.93766,2.84066l1.65864.41247Zm22.62194-34.52871c-8.25865,0-17.31393-2.37985-23.14107-3.91059-1.00869-.265-1.909-.50163-2.67692-.69162l-1.66031-.41,8.387-33.64459,1.65865.41747c.937.23582,2.087.49414,3.391.78829,9.49608,2.139,25.38927,5.71881,31.091,14.97241a13.60961,13.60961,0,0,1,1.947,8.96695h.13541l-.4933,2.119a13.42628,13.42628,0,0,1-6.31294,8.6428C589.912,375.38,585.57353,376.11323,580.99089,376.11323Zm-23.34273-7.492q.51184.13375,1.06911.28c7.96742,2.0957,24.54682,6.44877,32.85922,1.52574a9.82565,9.82565,0,0,0,4.47848-5.618l.22832-.91411a10.52708,10.52708,0,0,0-1.1491-8.47031c-4.94761-8.02951-20.55207-11.54429-28.9353-13.43251-.64163-.145-1.24742-.28165-1.80989-.41081Zm29.549-37.53768c-6.78292,0-14.0308-1.92905-18.718-3.17648-.862-.22915-1.63031-.43414-2.28319-.59579l-1.6574-.41081,7.64912-30.8056,1.65614.4108c.76787.19083,1.70782.39831,2.77275.6333,7.79077,1.71989,20.83,4.59972,25.77133,12.61172a12.82963,12.82963,0,0,1,1.80281,8.48031h.13207l-.42747,2.12071a12.85732,12.85732,0,0,1-6.01588,8.31032A21.029,21.029,0,0,1,587.19718,331.08351ZM568.67,324.42642q.33248.08749.687.18248c6.90541,1.83656,19.75836,5.258,26.78876,1.11327a9.08851,9.08851,0,0,0,3.94018-4.63805l.39706-1.56574a9.86816,9.86816,0,0,0-.99994-7.97534c-4.18349-6.78375-16.81563-9.57274-23.6023-11.071-.41872-.0925-.8187-.18083-1.19742-.26582Z" transform="translate(-236.3952 -210.82008)" fill="#3f3d56"/></svg>